<?xml version="1.0" encoding="utf-8"?>
<!-- Generator: Adobe Illustrator 27.2.0, SVG Export Plug-In . SVG Version: 6.00 Build 0)  -->
<svg version="1.1" id="Layer_1" xmlns="http://www.w3.org/2000/svg" xmlns:xlink="http://www.w3.org/1999/xlink" x="0px" y="0px"
	 viewBox="0 0 283.5 283.5" style="enable-background:new 0 0 283.5 283.5;" xml:space="preserve">
<style type="text/css">
	.st0{fill:#F253C2;}
</style>
<g>
	<path class="st0" d="M205.9,229.9h-24.1c-8,0-14.5,6.5-14.5,14.5v17.9c0,8,6.5,14.5,14.5,14.5h24.1c8,0,14.5-6.5,14.5-14.5v-17.9
		C220.4,236.3,213.9,229.9,205.9,229.9z M204.3,253.8c0,5.5-4.5,10-10,10h-0.9c-5.5,0-10-4.5-10-10v-0.9c0-5.5,4.5-10,10-10h0.9
		c5.5,0,10,4.5,10,10V253.8z"/>
	<path class="st0" d="M205.9,144.1h-56.5H94.5c-8,0-14.5,6.5-14.5,14.5v53.4v50.3c0,8,6.5,14.5,14.5,14.5h54c8,0,14.5-6.5,14.5-14.5
		v-34.8c0-1.1,0.9-2,2-2h40.9c8,0,14.5-6.5,14.5-14.5v-52.5C220.4,150.6,213.9,144.1,205.9,144.1z M180.7,186c0,5.5-4.5,10-10,10
		h-0.9c-5.5,0-10-4.5-10-10v-0.9c0-5.5,4.5-10,10-10h0.9c5.5,0,10,4.5,10,10V186z"/>
	<g>
		<path class="st0" d="M243.5,144.1h-7.3h-2.6h-7.3c-0.9,0-1.6,0.7-1.6,1.6v2.6c0,0.9,0.7,1.6,1.6,1.6h5.7v5.2
			c0,0.9,0.7,1.6,1.6,1.6h2.6c0.9,0,1.6-0.7,1.6-1.6v-5.2h5.7c0.9,0,1.6-0.7,1.6-1.6v-2.6C245,144.8,244.3,144.1,243.5,144.1z"/>
		<path class="st0" d="M224.8,165.8v-9.3c0-0.9,0.7-1.6,1.6-1.6h2.6c0.9,0,1.6,0.7,1.6,1.6v9.3c0,0.9-0.7,1.6-1.6,1.6h-2.6
			C225.5,167.4,224.8,166.7,224.8,165.8z"/>
		<path class="st0" d="M232,165.8v-5.5c0-0.9,0.7-1.6,1.6-1.6h2.6c0.9,0,1.6,0.7,1.6,1.6v5.5c0,0.9-0.7,1.6-1.6,1.6h-2.6
			C232.7,167.4,232,166.7,232,165.8z"/>
		<path class="st0" d="M239.3,165.8v-9.3c0-0.9,0.7-1.6,1.6-1.6h2.6c0.9,0,1.6,0.7,1.6,1.6v9.3c0,0.9-0.7,1.6-1.6,1.6h-2.6
			C240,167.4,239.3,166.7,239.3,165.8z"/>
	</g>
	<path class="st0" d="M238.7,92.5h-56.9c-8,0-14.5,6.5-14.5,14.5v17.9c0,8,6.5,14.5,14.5,14.5h56.9c8,0,14.5-6.5,14.5-14.5V107
		C253.2,99,246.7,92.5,238.7,92.5z M237.1,116.4c0,5.5-4.5,10-10,10h-0.9c-5.5,0-10-4.5-10-10v-0.9c0-5.5,4.5-10,10-10h0.9
		c5.5,0,10,4.5,10,10V116.4z"/>
	<path class="st0" d="M238.7,6.7h-89.3H93.6H44.7c-8,0-14.5,6.5-14.5,14.5v52.5c0,8,6.5,14.5,14.5,14.5H78c1.1,0,2,0.9,2,2v34.8
		c0,8,6.5,14.5,14.5,14.5h54c8,0,14.5-6.5,14.5-14.5V90.1c0-1.1,0.9-2,2-2h73.8c8,0,14.5-6.5,14.5-14.5V21.2
		C253.2,13.2,246.7,6.7,238.7,6.7z M117,116.4c0,5.5-4.5,10-10,10h-0.9c-5.5,0-10-4.5-10-10v-0.9c0-5.5,4.5-10,10-10h0.9
		c5.5,0,10,4.5,10,10V116.4z"/>
</g>
</svg>
