<?xml version="1.0" encoding="utf-8"?>
<!-- Generator: Adobe Illustrator 27.2.0, SVG Export Plug-In . SVG Version: 6.00 Build 0)  -->
<svg version="1.1" xmlns="http://www.w3.org/2000/svg" xmlns:xlink="http://www.w3.org/1999/xlink" x="0px" y="0px"
	 viewBox="0 0 314.6 472.1" style="enable-background:new 0 0 314.6 472.1;" xml:space="preserve">
<style type="text/css">
	.st0{fill:url(#CASE_x5F_BEVEL_00000099631461132138311560000000607844726633709995_);}
	.st1{fill:#191919;}
	.st2{fill:#353535;}
	.st3{fill:#C9C9C9;}
	.st4{fill:url(#BODY_00000108988645687068823650000006563052712367254926_);}
	.st5{fill:url(#DOT_00000104705894255900076300000002427975988303461050_);}
	.st6{fill:url(#BODY_00000001654772826153104400000002530152365374226573_);}
	.st7{fill:url(#DOT_00000078013234686539094580000017362695992983517318_);}
	.st8{fill:url(#BODY_00000057841044890287488540000014213186712875806347_);}
	.st9{fill:url(#DOT_00000023243028068673162000000009372069808336589990_);}
	.st10{fill:url(#BODY_00000095320560906299473340000007214440587355241897_);}
	.st11{fill:url(#DOT_00000052075756154697204350000011297495739313241736_);}
	.st12{fill:url(#BODY_00000179644117796123203310000001110470115393410484_);}
	.st13{fill:url(#DOT_00000077302107141238813160000014307714894835188668_);}
	.st14{fill:url(#BODY_00000029040666462456296580000007172808142931868040_);}
	.st15{fill:url(#DOT_00000024706325416267680040000005608741633178566832_);}
	.st16{fill:url(#BODY_00000155846728178072215530000012403163571229561741_);}
	.st17{fill:url(#DOT_00000091000089023606826690000006498638606159195049_);}
	.st18{fill:url(#BODY_00000031165324943208293770000006348843378040808092_);}
	.st19{fill:url(#DOT_00000066515435197681844860000011929776974448144039_);}
	.st20{fill:url(#BODY_00000020374769786299300330000011112053015063865224_);}
	.st21{fill:url(#DOT_00000152960904208440616020000003856675695893331075_);}
	.st22{fill:url(#BODY_00000031188697654158852340000001969995658244273563_);}
	.st23{fill:url(#DOT_00000178897130828481222550000012847536455506398346_);}
	.st24{fill:url(#BODY_00000136391477328016233220000014145593363698706877_);}
	.st25{fill:url(#DOT_00000068659080352879537390000004480500487560413593_);}
	.st26{fill:url(#BODY_00000098214712373694149690000000590097925303316380_);}
	.st27{fill:url(#DOT_00000117646200667538212690000013114199685829935002_);}
	.st28{fill:url(#BODY_00000129170466769101003110000011364140802625340571_);}
	.st29{fill:url(#DOT_00000127003014179869161230000005605753535970177725_);}
	.st30{fill:url(#BODY_00000129907986747497626520000007967400912922950588_);}
	.st31{fill:url(#DOT_00000173137225063561033270000002419271077221977746_);}
	.st32{fill:url(#BODY_00000149377780091694691550000006980385928518641564_);}
	.st33{fill:url(#DOT_00000165914183984500997550000013890341846803564174_);}
	.st34{fill:url(#BODY_00000021111122123637704570000018058171606662075532_);}
	.st35{fill:url(#DOT_00000084501072751297127390000011641083165487209870_);}
	.st36{display:none;}
	.st37{display:inline;}
	.st38{fill:none;stroke:#4584F8;stroke-width:2;stroke-linecap:round;stroke-miterlimit:10;}
	.st39{font-family:'Poppins-SemiBold';}
	.st40{font-size:12px;}
</style>
<g id="T16">
	<g id="CASE_00000103966262196922537860000010596402722012433285_">
		
			<linearGradient id="CASE_x5F_BEVEL_00000010288388842753158940000016643703379558110892_" gradientUnits="userSpaceOnUse" x1="49.058" y1="127.8143" x2="271.5845" y2="350.3409">
			<stop  offset="0" style="stop-color:#353535"/>
			<stop  offset="0.5" style="stop-color:#000000"/>
			<stop  offset="1" style="stop-color:#353535"/>
		</linearGradient>
		<path id="CASE_x5F_BEVEL" style="fill:url(#CASE_x5F_BEVEL_00000010288388842753158940000016643703379558110892_);" d="M14.2,87.3
			C6.3,87.3,0,93.6,0,101.5C0,191.3,0,281,0,370.8c0,7.8,6.3,14.2,14.2,14.2c95.4,0,190.9,0,286.3,0c7.8,0,14.2-6.3,14.2-14.2
			c0-89.8,0-179.5,0-269.3c0-7.8-6.3-14.2-14.2-14.2C205,87.3,109.6,87.3,14.2,87.3z"/>
		<path id="CASE" class="st1" d="M14.2,382.8c-6.7,0-12.1-5.4-12.1-12.1V101.5c0-6.8,5.3-12.1,12.1-12.1h286.3
			c6.7,0,12.1,5.4,12.1,12.1v269.3c0,6.7-5.4,12.1-12.1,12.1H14.2z"/>
		<path id="TOUCH_00000003811853554223290600000000082321313968992648_" class="st2" d="M17.5,343.9c0,2.7,2.2,4.8,4.8,4.8
			c16.1,0,32.1,0,48.2,0c2.7,0,4.8-2.2,4.8-4.8c0-58.6,0-117.2,0-175.7c0-2.7-2.2-4.8-4.8-4.8c-16.1,0-32.1,0-48.2,0
			c-2.7,0-4.8,2.2-4.8,4.8C17.5,226.7,17.5,285.3,17.5,343.9z"/>
	</g>
	<g id="BUTTONS_00000147188020941165853860000005428750543543022219_">
		<circle id="SLIDER" class="st3" cx="43.9" cy="118.3" r="13.5"/>
		<circle id="MODE" class="st3" cx="270.7" cy="118.3" r="13.7"/>
	</g>
	<g id="KEYS_00000173879660599727943430000003509028490720129958_">
		<g id="KEY0">
			<path id="BEVEL" class="st3" d="M83.4,199c0,1.2,1,2.1,2.1,2.1h47.6c1.2,0,2.1-1,2.1-2.1v-47.6c0-1.2-1-2.1-2.1-2.1H85.5
				c-1.2,0-2.1,1-2.1,2.1V199z"/>
			
				<radialGradient id="BODY_00000170993351625917116760000006310323457615854474_" cx="109.3" cy="175.1563" r="24.8031" gradientUnits="userSpaceOnUse">
				<stop  offset="0.7355" style="stop-color:#C9C9C9"/>
				<stop  offset="0.9956" style="stop-color:#E5E5E5"/>
			</radialGradient>
			<path id="BODY" style="fill:url(#BODY_00000170993351625917116760000006310323457615854474_);" d="M84.5,197.9c0,1.1,1,2,2,2
				h45.6c1.1,0,2-1,2-2v-45.6c0-1.1-1-2-2-2H86.5c-1.1,0-2,1-2,2V197.9z"/>
			
				<radialGradient id="DOT_00000049900063835555535630000002150278167191206797_" cx="109.3" cy="175.1563" r="19.8425" gradientUnits="userSpaceOnUse">
				<stop  offset="0" style="stop-color:#C9C9C9"/>
				<stop  offset="0.5003" style="stop-color:#D7D7D7"/>
				<stop  offset="0.9956" style="stop-color:#E5E5E5"/>
			</radialGradient>
			<circle id="DOT" style="fill:url(#DOT_00000049900063835555535630000002150278167191206797_);" cx="109.3" cy="175.2" r="19.8"/>
		</g>
		<g id="KEY1">
			<path id="BEVEL_00000110436878738314245900000006868351715313286531_" class="st3" d="M137.3,199c0,1.2,1,2.1,2.1,2.1H187
				c1.2,0,2.1-1,2.1-2.1v-47.6c0-1.2-1-2.1-2.1-2.1h-47.6c-1.2,0-2.1,1-2.1,2.1V199z"/>
			
				<radialGradient id="BODY_00000085954426880047391180000016207625498586818204_" cx="163.1583" cy="175.1563" r="24.8031" gradientUnits="userSpaceOnUse">
				<stop  offset="0.7355" style="stop-color:#C9C9C9"/>
				<stop  offset="0.9956" style="stop-color:#E5E5E5"/>
			</radialGradient>
			
				<path id="BODY_00000106834708232549854520000006634517597508070842_" style="fill:url(#BODY_00000085954426880047391180000016207625498586818204_);" d="
				M138.4,197.9c0,1.1,1,2,2,2H186c1.1,0,2-1,2-2v-45.6c0-1.1-1-2-2-2h-45.6c-1.1,0-2,1-2,2V197.9z"/>
			
				<radialGradient id="DOT_00000029745226063750460910000002391682407148776118_" cx="163.1583" cy="175.1563" r="19.8425" gradientUnits="userSpaceOnUse">
				<stop  offset="0" style="stop-color:#C9C9C9"/>
				<stop  offset="0.5003" style="stop-color:#D7D7D7"/>
				<stop  offset="0.9956" style="stop-color:#E5E5E5"/>
			</radialGradient>
			
				<circle id="DOT_00000171693778124861792920000001537649692281738653_" style="fill:url(#DOT_00000029745226063750460910000002391682407148776118_);" cx="163.2" cy="175.2" r="19.8"/>
		</g>
		<g id="KEY2">
			<path id="BEVEL_00000066506097571017385640000009064845384776699029_" class="st3" d="M191.1,199c0,1.2,1,2.1,2.1,2.1h47.6
				c1.2,0,2.1-1,2.1-2.1v-47.6c0-1.2-1-2.1-2.1-2.1h-47.6c-1.2,0-2.1,1-2.1,2.1V199z"/>
			
				<radialGradient id="BODY_00000142147428619410081340000005151392310633162928_" cx="217.0165" cy="175.1563" r="24.8031" gradientUnits="userSpaceOnUse">
				<stop  offset="0.7355" style="stop-color:#C9C9C9"/>
				<stop  offset="0.9956" style="stop-color:#E5E5E5"/>
			</radialGradient>
			
				<path id="BODY_00000074443761956591306610000003712510452832187268_" style="fill:url(#BODY_00000142147428619410081340000005151392310633162928_);" d="
				M192.2,197.9c0,1.1,1,2,2,2h45.6c1.1,0,2-1,2-2v-45.6c0-1.1-1-2-2-2h-45.6c-1.1,0-2,1-2,2V197.9z"/>
			
				<radialGradient id="DOT_00000016033522011729300200000008271526709523337898_" cx="217.0165" cy="175.1563" r="19.8425" gradientUnits="userSpaceOnUse">
				<stop  offset="0" style="stop-color:#C9C9C9"/>
				<stop  offset="0.5003" style="stop-color:#D7D7D7"/>
				<stop  offset="0.9956" style="stop-color:#E5E5E5"/>
			</radialGradient>
			
				<circle id="DOT_00000022522147123889077430000008345367383735484564_" style="fill:url(#DOT_00000016033522011729300200000008271526709523337898_);" cx="217" cy="175.2" r="19.8"/>
		</g>
		<g id="KEY3">
			<path id="BEVEL_00000127028810665544820900000011429316475072030368_" class="st3" d="M245,199c0,1.2,1,2.1,2.1,2.1h47.6
				c1.2,0,2.1-1,2.1-2.1v-47.6c0-1.2-1-2.1-2.1-2.1h-47.6c-1.2,0-2.1,1-2.1,2.1V199z"/>
			
				<radialGradient id="BODY_00000085239023177455253990000018216693256273194684_" cx="270.8748" cy="175.1563" r="24.8031" gradientUnits="userSpaceOnUse">
				<stop  offset="0.7355" style="stop-color:#C9C9C9"/>
				<stop  offset="0.9956" style="stop-color:#E5E5E5"/>
			</radialGradient>
			
				<path id="BODY_00000016077184772835596980000014818841154111583116_" style="fill:url(#BODY_00000085239023177455253990000018216693256273194684_);" d="
				M246.1,197.9c0,1.1,1,2,2,2h45.6c1.1,0,2-1,2-2v-45.6c0-1.1-1-2-2-2h-45.6c-1.1,0-2,1-2,2V197.9z"/>
			
				<radialGradient id="DOT_00000095327084172040012180000015946175601840108722_" cx="270.8748" cy="175.1563" r="19.8425" gradientUnits="userSpaceOnUse">
				<stop  offset="0" style="stop-color:#C9C9C9"/>
				<stop  offset="0.5003" style="stop-color:#D7D7D7"/>
				<stop  offset="0.9956" style="stop-color:#E5E5E5"/>
			</radialGradient>
			
				<circle id="DOT_00000109721764466458072430000009873123069578098613_" style="fill:url(#DOT_00000095327084172040012180000015946175601840108722_);" cx="270.9" cy="175.2" r="19.8"/>
		</g>
		<g id="KEY4">
			<path id="BEVEL_00000090279164676805345910000003538930113323442872_" class="st3" d="M83.4,252.8c0,1.2,1,2.1,2.1,2.1h47.6
				c1.2,0,2.1-1,2.1-2.1v-47.6c0-1.2-1-2.1-2.1-2.1H85.5c-1.2,0-2.1,1-2.1,2.1V252.8z"/>
			
				<radialGradient id="BODY_00000035522535065086034530000006783580612696282503_" cx="109.3" cy="229.0146" r="24.8031" gradientUnits="userSpaceOnUse">
				<stop  offset="0.7355" style="stop-color:#C9C9C9"/>
				<stop  offset="0.9956" style="stop-color:#E5E5E5"/>
			</radialGradient>
			
				<path id="BODY_00000115485120959693624170000004714286627268727687_" style="fill:url(#BODY_00000035522535065086034530000006783580612696282503_);" d="
				M84.5,251.8c0,1.1,1,2,2,2h45.6c1.1,0,2-1,2-2v-45.6c0-1.1-1-2-2-2H86.5c-1.1,0-2,1-2,2V251.8z"/>
			
				<radialGradient id="DOT_00000128446105364392672330000001312997503107798695_" cx="109.3" cy="229.0146" r="19.8425" gradientUnits="userSpaceOnUse">
				<stop  offset="0" style="stop-color:#C9C9C9"/>
				<stop  offset="0.5003" style="stop-color:#D7D7D7"/>
				<stop  offset="0.9956" style="stop-color:#E5E5E5"/>
			</radialGradient>
			
				<circle id="DOT_00000086658357187870602550000002215098022931968421_" style="fill:url(#DOT_00000128446105364392672330000001312997503107798695_);" cx="109.3" cy="229" r="19.8"/>
		</g>
		<g id="KEY5">
			<path id="BEVEL_00000081607333526066817070000011913299726272756646_" class="st3" d="M137.3,252.8c0,1.2,1,2.1,2.1,2.1H187
				c1.2,0,2.1-1,2.1-2.1v-47.6c0-1.2-1-2.1-2.1-2.1h-47.6c-1.2,0-2.1,1-2.1,2.1V252.8z"/>
			
				<radialGradient id="BODY_00000018200749642823355640000016924928915988308415_" cx="163.1583" cy="229.0146" r="24.8031" gradientUnits="userSpaceOnUse">
				<stop  offset="0.7355" style="stop-color:#C9C9C9"/>
				<stop  offset="0.9956" style="stop-color:#E5E5E5"/>
			</radialGradient>
			
				<path id="BODY_00000060021623068180048810000005990616736903134633_" style="fill:url(#BODY_00000018200749642823355640000016924928915988308415_);" d="
				M138.4,251.8c0,1.1,1,2,2,2H186c1.1,0,2-1,2-2v-45.6c0-1.1-1-2-2-2h-45.6c-1.1,0-2,1-2,2V251.8z"/>
			
				<radialGradient id="DOT_00000167386261064700174990000013812893250765502398_" cx="163.1583" cy="229.0146" r="19.8425" gradientUnits="userSpaceOnUse">
				<stop  offset="0" style="stop-color:#C9C9C9"/>
				<stop  offset="0.5003" style="stop-color:#D7D7D7"/>
				<stop  offset="0.9956" style="stop-color:#E5E5E5"/>
			</radialGradient>
			
				<circle id="DOT_00000007420724636999013880000018186361370815666825_" style="fill:url(#DOT_00000167386261064700174990000013812893250765502398_);" cx="163.2" cy="229" r="19.8"/>
		</g>
		<g id="KEY6">
			<path id="BEVEL_00000135665608187366105710000002713690504290251695_" class="st3" d="M191.1,252.8c0,1.2,1,2.1,2.1,2.1h47.6
				c1.2,0,2.1-1,2.1-2.1v-47.6c0-1.2-1-2.1-2.1-2.1h-47.6c-1.2,0-2.1,1-2.1,2.1V252.8z"/>
			
				<radialGradient id="BODY_00000060025470056896383960000002120572650891578240_" cx="217.0165" cy="229.0146" r="24.8031" gradientUnits="userSpaceOnUse">
				<stop  offset="0.7355" style="stop-color:#C9C9C9"/>
				<stop  offset="0.9956" style="stop-color:#E5E5E5"/>
			</radialGradient>
			
				<path id="BODY_00000183216068472646170080000015123577403430638721_" style="fill:url(#BODY_00000060025470056896383960000002120572650891578240_);" d="
				M192.2,251.8c0,1.1,1,2,2,2h45.6c1.1,0,2-1,2-2v-45.6c0-1.1-1-2-2-2h-45.6c-1.1,0-2,1-2,2V251.8z"/>
			
				<radialGradient id="DOT_00000139267205329435320720000004807828884168234402_" cx="217.0165" cy="229.0146" r="19.8425" gradientUnits="userSpaceOnUse">
				<stop  offset="0" style="stop-color:#C9C9C9"/>
				<stop  offset="0.5003" style="stop-color:#D7D7D7"/>
				<stop  offset="0.9956" style="stop-color:#E5E5E5"/>
			</radialGradient>
			
				<circle id="DOT_00000047061494577548359570000011467076515082230150_" style="fill:url(#DOT_00000139267205329435320720000004807828884168234402_);" cx="217" cy="229" r="19.8"/>
		</g>
		<g id="KEY7">
			<path id="BEVEL_00000183236392656621492250000011515475843357128878_" class="st3" d="M245,252.8c0,1.2,1,2.1,2.1,2.1h47.6
				c1.2,0,2.1-1,2.1-2.1v-47.6c0-1.2-1-2.1-2.1-2.1h-47.6c-1.2,0-2.1,1-2.1,2.1V252.8z"/>
			
				<radialGradient id="BODY_00000118379097976569269510000017128597264891407751_" cx="270.8748" cy="229.0146" r="24.8031" gradientUnits="userSpaceOnUse">
				<stop  offset="0.7355" style="stop-color:#C9C9C9"/>
				<stop  offset="0.9956" style="stop-color:#E5E5E5"/>
			</radialGradient>
			
				<path id="BODY_00000011721209308964383800000008260775620557547416_" style="fill:url(#BODY_00000118379097976569269510000017128597264891407751_);" d="
				M246.1,251.8c0,1.1,1,2,2,2h45.6c1.1,0,2-1,2-2v-45.6c0-1.1-1-2-2-2h-45.6c-1.1,0-2,1-2,2V251.8z"/>
			
				<radialGradient id="DOT_00000148659480166388696390000004699652858681211268_" cx="270.8748" cy="229.0146" r="19.8425" gradientUnits="userSpaceOnUse">
				<stop  offset="0" style="stop-color:#C9C9C9"/>
				<stop  offset="0.5003" style="stop-color:#D7D7D7"/>
				<stop  offset="0.9956" style="stop-color:#E5E5E5"/>
			</radialGradient>
			
				<circle id="DOT_00000090987322898181088860000005882368417061729187_" style="fill:url(#DOT_00000148659480166388696390000004699652858681211268_);" cx="270.9" cy="229" r="19.8"/>
		</g>
		<g id="KEY8">
			<path id="BEVEL_00000121976762564228778620000012879257729774361248_" class="st3" d="M83.4,306.7c0,1.2,1,2.1,2.1,2.1h47.6
				c1.2,0,2.1-1,2.1-2.1v-47.6c0-1.2-1-2.1-2.1-2.1H85.5c-1.2,0-2.1,1-2.1,2.1V306.7z"/>
			
				<radialGradient id="BODY_00000080187549218347797070000006932273428041237431_" cx="109.3" cy="282.8729" r="24.8031" gradientUnits="userSpaceOnUse">
				<stop  offset="0.7355" style="stop-color:#C9C9C9"/>
				<stop  offset="0.9956" style="stop-color:#E5E5E5"/>
			</radialGradient>
			
				<path id="BODY_00000028283048674020284720000015631246642272570552_" style="fill:url(#BODY_00000080187549218347797070000006932273428041237431_);" d="
				M84.5,305.7c0,1.1,1,2,2,2h45.6c1.1,0,2-1,2-2v-45.6c0-1.1-1-2-2-2H86.5c-1.1,0-2,1-2,2V305.7z"/>
			
				<radialGradient id="DOT_00000103951490296115792200000010736386549889929864_" cx="109.3" cy="282.8729" r="19.8425" gradientUnits="userSpaceOnUse">
				<stop  offset="0" style="stop-color:#C9C9C9"/>
				<stop  offset="0.5003" style="stop-color:#D7D7D7"/>
				<stop  offset="0.9956" style="stop-color:#E5E5E5"/>
			</radialGradient>
			
				<circle id="DOT_00000148631777051016757660000001272801632295148711_" style="fill:url(#DOT_00000103951490296115792200000010736386549889929864_);" cx="109.3" cy="282.9" r="19.8"/>
		</g>
		<g id="KEY9">
			<path id="BEVEL_00000118385437901919782400000004603265615426416788_" class="st3" d="M137.3,306.7c0,1.2,1,2.1,2.1,2.1H187
				c1.2,0,2.1-1,2.1-2.1v-47.6c0-1.2-1-2.1-2.1-2.1h-47.6c-1.2,0-2.1,1-2.1,2.1V306.7z"/>
			
				<radialGradient id="BODY_00000061455804035975029510000004814330589947521415_" cx="163.1583" cy="282.8729" r="24.8031" gradientUnits="userSpaceOnUse">
				<stop  offset="0.7355" style="stop-color:#C9C9C9"/>
				<stop  offset="0.9956" style="stop-color:#E5E5E5"/>
			</radialGradient>
			
				<path id="BODY_00000001650915153197060060000015662777015913693323_" style="fill:url(#BODY_00000061455804035975029510000004814330589947521415_);" d="
				M138.4,305.7c0,1.1,1,2,2,2H186c1.1,0,2-1,2-2v-45.6c0-1.1-1-2-2-2h-45.6c-1.1,0-2,1-2,2V305.7z"/>
			
				<radialGradient id="DOT_00000141448224476970587230000017632234814108075148_" cx="163.1583" cy="282.8729" r="19.8425" gradientUnits="userSpaceOnUse">
				<stop  offset="0" style="stop-color:#C9C9C9"/>
				<stop  offset="0.5003" style="stop-color:#D7D7D7"/>
				<stop  offset="0.9956" style="stop-color:#E5E5E5"/>
			</radialGradient>
			
				<circle id="DOT_00000142156420113214719540000007678558092772316581_" style="fill:url(#DOT_00000141448224476970587230000017632234814108075148_);" cx="163.2" cy="282.9" r="19.8"/>
		</g>
		<g id="KEY10">
			<path id="BEVEL_00000061458152090179713890000011833966808904658583_" class="st3" d="M191.1,306.7c0,1.2,1,2.1,2.1,2.1h47.6
				c1.2,0,2.1-1,2.1-2.1v-47.6c0-1.2-1-2.1-2.1-2.1h-47.6c-1.2,0-2.1,1-2.1,2.1V306.7z"/>
			
				<radialGradient id="BODY_00000164490038440920417040000016302561695889593522_" cx="217.0165" cy="282.8729" r="24.8031" gradientUnits="userSpaceOnUse">
				<stop  offset="0.7355" style="stop-color:#C9C9C9"/>
				<stop  offset="0.9956" style="stop-color:#E5E5E5"/>
			</radialGradient>
			
				<path id="BODY_00000135665954091570893520000011358576105642175153_" style="fill:url(#BODY_00000164490038440920417040000016302561695889593522_);" d="
				M192.2,305.7c0,1.1,1,2,2,2h45.6c1.1,0,2-1,2-2v-45.6c0-1.1-1-2-2-2h-45.6c-1.1,0-2,1-2,2V305.7z"/>
			
				<radialGradient id="DOT_00000176017536636138945160000008860298203916866226_" cx="217.0165" cy="282.8729" r="19.8425" gradientUnits="userSpaceOnUse">
				<stop  offset="0" style="stop-color:#C9C9C9"/>
				<stop  offset="0.5003" style="stop-color:#D7D7D7"/>
				<stop  offset="0.9956" style="stop-color:#E5E5E5"/>
			</radialGradient>
			
				<circle id="DOT_00000018201212713498461180000004617694632475311547_" style="fill:url(#DOT_00000176017536636138945160000008860298203916866226_);" cx="217" cy="282.9" r="19.8"/>
		</g>
		<g id="KEY11">
			<path id="BEVEL_00000166654777882729660940000007934608664779712925_" class="st3" d="M245,306.7c0,1.2,1,2.1,2.1,2.1h47.6
				c1.2,0,2.1-1,2.1-2.1v-47.6c0-1.2-1-2.1-2.1-2.1h-47.6c-1.2,0-2.1,1-2.1,2.1V306.7z"/>
			
				<radialGradient id="BODY_00000001652597736216752160000007818438468998983346_" cx="270.8748" cy="282.8729" r="24.8031" gradientUnits="userSpaceOnUse">
				<stop  offset="0.7355" style="stop-color:#C9C9C9"/>
				<stop  offset="0.9956" style="stop-color:#E5E5E5"/>
			</radialGradient>
			
				<path id="BODY_00000114051511688865716540000002003398743529034128_" style="fill:url(#BODY_00000001652597736216752160000007818438468998983346_);" d="
				M246.1,305.7c0,1.1,1,2,2,2h45.6c1.1,0,2-1,2-2v-45.6c0-1.1-1-2-2-2h-45.6c-1.1,0-2,1-2,2V305.7z"/>
			
				<radialGradient id="DOT_00000021112479309823244150000007048357836183960195_" cx="270.8748" cy="282.8729" r="19.8425" gradientUnits="userSpaceOnUse">
				<stop  offset="0" style="stop-color:#C9C9C9"/>
				<stop  offset="0.5003" style="stop-color:#D7D7D7"/>
				<stop  offset="0.9956" style="stop-color:#E5E5E5"/>
			</radialGradient>
			
				<circle id="DOT_00000008129503584826192400000010507290652179242903_" style="fill:url(#DOT_00000021112479309823244150000007048357836183960195_);" cx="270.9" cy="282.9" r="19.8"/>
		</g>
		<g id="KEY12">
			<path id="BEVEL_00000121256620169533558730000013429216476173429648_" class="st3" d="M83.4,360.5c0,1.2,1,2.1,2.1,2.1h47.6
				c1.2,0,2.1-1,2.1-2.1v-47.6c0-1.2-1-2.1-2.1-2.1H85.5c-1.2,0-2.1,1-2.1,2.1V360.5z"/>
			
				<radialGradient id="BODY_00000005250468427502396940000006915774594270122892_" cx="109.3" cy="336.7311" r="24.8031" gradientUnits="userSpaceOnUse">
				<stop  offset="0.7355" style="stop-color:#C9C9C9"/>
				<stop  offset="0.9956" style="stop-color:#E5E5E5"/>
			</radialGradient>
			
				<path id="BODY_00000088127009653878169900000011764278126408512137_" style="fill:url(#BODY_00000005250468427502396940000006915774594270122892_);" d="
				M84.5,359.5c0,1.1,1,2,2,2h45.6c1.1,0,2-1,2-2v-45.6c0-1.1-1-2-2-2H86.5c-1.1,0-2,1-2,2V359.5z"/>
			
				<radialGradient id="DOT_00000041986253145000870550000017742750501321977235_" cx="109.3" cy="336.7311" r="19.8425" gradientUnits="userSpaceOnUse">
				<stop  offset="0" style="stop-color:#C9C9C9"/>
				<stop  offset="0.5003" style="stop-color:#D7D7D7"/>
				<stop  offset="0.9956" style="stop-color:#E5E5E5"/>
			</radialGradient>
			
				<circle id="DOT_00000132049730336249415190000001567426542398129580_" style="fill:url(#DOT_00000041986253145000870550000017742750501321977235_);" cx="109.3" cy="336.7" r="19.8"/>
		</g>
		<g id="KEY13">
			<path id="BEVEL_00000065037632999764263120000013717721511470621577_" class="st3" d="M137.3,360.5c0,1.2,1,2.1,2.1,2.1H187
				c1.2,0,2.1-1,2.1-2.1v-47.6c0-1.2-1-2.1-2.1-2.1h-47.6c-1.2,0-2.1,1-2.1,2.1V360.5z"/>
			
				<radialGradient id="BODY_00000064339327965161039720000004050897207279795087_" cx="163.1583" cy="336.7311" r="24.8031" gradientUnits="userSpaceOnUse">
				<stop  offset="0.7355" style="stop-color:#C9C9C9"/>
				<stop  offset="0.9956" style="stop-color:#E5E5E5"/>
			</radialGradient>
			
				<path id="BODY_00000029745734039149992840000002004408304754575252_" style="fill:url(#BODY_00000064339327965161039720000004050897207279795087_);" d="
				M138.4,359.5c0,1.1,1,2,2,2H186c1.1,0,2-1,2-2v-45.6c0-1.1-1-2-2-2h-45.6c-1.1,0-2,1-2,2V359.5z"/>
			
				<radialGradient id="DOT_00000066498958064765944850000012459942377440876472_" cx="163.1583" cy="336.7311" r="19.8425" gradientUnits="userSpaceOnUse">
				<stop  offset="0" style="stop-color:#C9C9C9"/>
				<stop  offset="0.5003" style="stop-color:#D7D7D7"/>
				<stop  offset="0.9956" style="stop-color:#E5E5E5"/>
			</radialGradient>
			
				<circle id="DOT_00000168118704916488501930000007881877886106366083_" style="fill:url(#DOT_00000066498958064765944850000012459942377440876472_);" cx="163.2" cy="336.7" r="19.8"/>
		</g>
		<g id="KEY14">
			<path id="BEVEL_00000182495619576891896300000017825000707577064070_" class="st3" d="M191.1,360.5c0,1.2,1,2.1,2.1,2.1h47.6
				c1.2,0,2.1-1,2.1-2.1v-47.6c0-1.2-1-2.1-2.1-2.1h-47.6c-1.2,0-2.1,1-2.1,2.1V360.5z"/>
			
				<radialGradient id="BODY_00000151506497790129326180000002368201202116892819_" cx="217.0165" cy="336.7311" r="24.8031" gradientUnits="userSpaceOnUse">
				<stop  offset="0.7355" style="stop-color:#C9C9C9"/>
				<stop  offset="0.9956" style="stop-color:#E5E5E5"/>
			</radialGradient>
			
				<path id="BODY_00000026852151163640317950000002736988073585478584_" style="fill:url(#BODY_00000151506497790129326180000002368201202116892819_);" d="
				M192.2,359.5c0,1.1,1,2,2,2h45.6c1.1,0,2-1,2-2v-45.6c0-1.1-1-2-2-2h-45.6c-1.1,0-2,1-2,2V359.5z"/>
			
				<radialGradient id="DOT_00000047037286132712400470000001336217389272631994_" cx="217.0165" cy="336.7311" r="19.8425" gradientUnits="userSpaceOnUse">
				<stop  offset="0" style="stop-color:#C9C9C9"/>
				<stop  offset="0.5003" style="stop-color:#D7D7D7"/>
				<stop  offset="0.9956" style="stop-color:#E5E5E5"/>
			</radialGradient>
			
				<circle id="DOT_00000103952607065049292750000000765951886462443400_" style="fill:url(#DOT_00000047037286132712400470000001336217389272631994_);" cx="217" cy="336.7" r="19.8"/>
		</g>
		<g id="KEY15">
			<path id="BEVEL_00000042014356332314514160000002909369982767952300_" class="st3" d="M245,360.5c0,1.2,1,2.1,2.1,2.1h47.6
				c1.2,0,2.1-1,2.1-2.1v-47.6c0-1.2-1-2.1-2.1-2.1h-47.6c-1.2,0-2.1,1-2.1,2.1V360.5z"/>
			
				<radialGradient id="BODY_00000026854030475877180100000003139694417870655627_" cx="270.8748" cy="336.7311" r="24.8031" gradientUnits="userSpaceOnUse">
				<stop  offset="0.7355" style="stop-color:#C9C9C9"/>
				<stop  offset="0.9956" style="stop-color:#E5E5E5"/>
			</radialGradient>
			
				<path id="BODY_00000137849017014282354950000018381870013468211622_" style="fill:url(#BODY_00000026854030475877180100000003139694417870655627_);" d="
				M246.1,359.5c0,1.1,1,2,2,2h45.6c1.1,0,2-1,2-2v-45.6c0-1.1-1-2-2-2h-45.6c-1.1,0-2,1-2,2V359.5z"/>
			
				<radialGradient id="DOT_00000088817209405944708600000004056752873545462713_" cx="270.8748" cy="336.7311" r="19.8425" gradientUnits="userSpaceOnUse">
				<stop  offset="0" style="stop-color:#C9C9C9"/>
				<stop  offset="0.5003" style="stop-color:#D7D7D7"/>
				<stop  offset="0.9956" style="stop-color:#E5E5E5"/>
			</radialGradient>
			
				<circle id="DOT_00000026125765593508867910000009926393707600358307_" style="fill:url(#DOT_00000088817209405944708600000004056752873545462713_);" cx="270.9" cy="336.7" r="19.8"/>
		</g>
	</g>
	<g id="TOUCHPAD_00000059289940042412007540000015764891651655889335_">
		<polygon id="TOUCHPAD" class="st3" points="22.3,169 22.5,168.5 22.7,168 23,167.6 23.4,167.2 24,166.9 24,166.9 24.4,166.7 
			42,166.7 43.8,166.7 45.5,166.7 47.1,166.7 48.6,166.7 50,166.7 51.2,166.7 52.4,166.7 53.4,166.7 54.4,166.7 55.2,166.7 
			56,166.7 56.7,166.7 57.3,166.7 57.9,166.7 58.3,166.7 58.7,166.7 59.1,166.7 59.3,166.7 59.6,166.7 59.7,166.7 59.8,166.8 
			59.9,166.8 59.9,166.8 60.5,167 60.9,167.3 61.3,167.7 61.7,168.2 61.7,168.3 62,168.8 62,343.3 61.8,343.7 61.5,344.1 
			61.2,344.5 60.9,344.8 60.6,345 60.6,345 60.5,345.1 60.4,345.1 60.4,345.1 60.3,345.2 60.3,345.2 60.2,345.2 60.1,345.2 
			60,345.3 59.9,345.3 59.8,345.3 59.6,345.3 59.4,345.3 59.1,345.3 58.8,345.3 58.5,345.3 58.1,345.4 57.6,345.4 57.1,345.4 
			56.5,345.4 55.8,345.4 55.1,345.4 54.3,345.4 53.3,345.4 52.4,345.4 51.3,345.4 50.1,345.4 48.8,345.4 47.4,345.4 45.9,345.4 
			44.3,345.4 42.6,345.4 42.1,345.4 40.4,345.4 38.7,345.4 37.2,345.4 35.8,345.4 34.6,345.4 33.4,345.4 32.3,345.4 31.3,345.4 
			30.4,345.4 29.6,345.4 28.8,345.4 28.2,345.4 27.6,345.4 27,345.4 26.6,345.4 26.2,345.4 25.8,345.4 25.5,345.4 25.3,345.4 
			25.1,345.3 24.9,345.3 24.8,345.3 24.6,345.3 24.6,345.3 24.5,345.3 24.4,345.3 24.4,345.3 24.3,345.3 24.3,345.3 23.8,345 
			23.3,344.7 22.9,344.3 22.6,343.8 22.5,343.5 22.3,343.1 		"/>
		<g id="LEDS_00000116215817737649545110000007652511196339130018_">
			<polygon id="LED6" class="st3" points="70,346.4 70.3,346.3 70.5,346.3 70.8,346.2 71.4,346 72,345.6 72.5,345.2 72.9,344.7 
				73.2,344.1 73.4,343.4 73.4,343.4 73.4,343.2 73.4,343 73.4,342.6 73.5,342.1 73.5,341.5 73.5,340.9 73.5,340.2 73.5,339.5 
				73.5,338.8 73.5,338 73.5,337.2 73.5,336.9 73.5,336.4 73.5,335.6 73.5,334.8 73.5,334 73.5,333.3 73.5,332.7 73.5,332 
				73.5,331.5 73.4,331.1 73.4,330.7 73.4,330.5 73.4,330.3 73.4,330.2 73.1,329.6 72.8,329 72.4,328.5 71.8,328.1 71.2,327.7 
				70.6,327.5 70.3,327.4 70,327.4 69.5,327.4 69,327.4 68.5,327.4 68.1,327.4 67.7,327.4 67.3,327.5 67.2,327.5 66.5,327.8 
				66,328.1 65.5,328.6 65.1,329.1 64.7,329.7 64.5,330.3 64.5,330.4 64.5,330.5 64.5,330.8 64.5,331.2 64.5,331.7 64.4,332.2 
				64.4,332.9 64.4,333.5 64.4,334.3 64.4,335 64.4,335.8 64.4,336.6 64.4,337.4 64.4,338.2 64.4,339 64.4,339.7 64.4,340.5 
				64.4,341.1 64.4,341.7 64.5,342.3 64.5,342.7 64.5,343.1 64.5,343.3 64.5,343.4 64.6,343.8 64.9,344.4 65.2,344.9 65.7,345.4 
				66.2,345.8 66.8,346.1 67.4,346.3 67.5,346.3 67.8,346.4 68.2,346.4 68.6,346.4 69.1,346.4 69.5,346.4 			"/>
			<polygon id="LED5" class="st3" points="69,319.4 69.5,319.4 70,319.4 70.4,319.4 70.6,319.3 70.8,319.3 71.4,319 72,318.7 
				72.5,318.2 72.9,317.7 73.2,317.1 73.4,316.5 73.4,316.5 73.4,316.3 73.4,316 73.4,315.6 73.5,315.1 73.5,314.6 73.5,314 
				73.5,313.3 73.5,312.6 73.5,311.8 73.5,311 73.5,311 73.5,310.2 73.5,309.4 73.5,308.6 73.5,307.8 73.5,307.1 73.5,306.4 
				73.5,305.7 73.5,305.1 73.5,304.6 73.4,304.1 73.4,303.8 73.4,303.5 73.4,303.4 73.3,303 73,302.4 72.7,301.9 72.2,301.4 
				71.7,301 71.1,300.7 70.5,300.5 70.5,300.5 70.2,300.5 69.9,300.4 69.4,300.4 69,300.4 68.5,300.4 68.1,300.4 67.7,300.5 
				67.5,300.5 67,300.6 66.4,300.9 65.8,301.3 65.3,301.8 65.2,302 65,302.3 64.8,302.7 64.6,303.1 64.5,303.5 64.5,303.5 
				64.5,303.7 64.5,303.9 64.5,304.3 64.4,304.7 64.4,305.3 64.4,306 64.4,306.8 64.4,307.7 64.4,308.8 64.4,309.9 64.4,310.5 
				64.4,311.4 64.4,312.3 64.4,313.1 64.4,313.7 64.4,314.3 64.4,314.8 64.4,315.2 64.4,315.5 64.5,315.8 64.5,316 64.5,316.2 
				64.5,316.3 64.5,316.4 64.5,316.5 64.6,316.7 64.8,317.3 65.2,317.9 65.6,318.4 66.1,318.8 66.7,319.1 67.4,319.3 67.4,319.3 
				67.7,319.4 68.1,319.4 68.6,319.4 			"/>
			<polygon id="LED4" class="st3" points="68.7,292.5 69.2,292.5 69.6,292.5 70,292.4 70.4,292.4 70.6,292.4 70.6,292.4 71.3,292.1 
				71.8,291.8 72.4,291.3 72.6,291.1 72.9,290.6 73.2,290.2 73.4,289.6 73.4,289.6 73.4,289.5 73.4,289.4 73.4,289.3 73.4,289.2 
				73.5,289 73.5,288.8 73.5,288.6 73.5,288.3 73.5,287.9 73.5,287.5 73.5,287 73.5,286.4 73.5,285.7 73.5,284.9 73.5,284.2 
				73.5,284 73.5,283 73.5,282.4 73.5,281.4 73.5,280.6 73.5,279.8 73.5,279.1 73.5,278.6 73.5,278.1 73.5,277.6 73.5,277.3 
				73.4,277 73.4,276.7 73.4,276.5 73.4,276.4 73.3,276.2 73.3,276.1 73.3,276 73.2,275.9 73.2,275.7 73.1,275.6 73,275.4 72.7,275 
				72.4,274.6 72,274.3 71.7,274 71.4,273.9 70.9,273.7 70.3,273.5 70.3,273.5 70,273.5 69.7,273.5 69.3,273.5 68.9,273.5 
				68.5,273.5 68.1,273.5 67.7,273.5 67.4,273.6 67.2,273.6 66.9,273.7 66.4,273.9 66,274.2 65.6,274.6 65.4,274.8 65.1,275.1 
				65,275.3 64.8,275.6 64.8,275.7 64.7,275.8 64.7,275.9 64.6,276 64.6,276.2 64.6,276.3 64.5,276.4 64.5,276.6 64.5,276.9 
				64.5,277.1 64.4,277.5 64.4,277.9 64.4,278.3 64.4,278.8 64.4,279.5 64.4,280.2 64.4,281 64.4,281.9 64.4,283 64.4,283.5 
				64.4,284.5 64.4,285.3 64.4,286 64.4,286.7 64.4,287.2 64.4,287.7 64.4,288.1 64.4,288.4 64.4,288.7 64.5,288.9 64.5,289.1 
				64.5,289.2 64.5,289.3 64.5,289.4 64.5,289.5 64.5,289.6 64.6,289.9 64.9,290.4 65.2,290.9 65.6,291.3 65.6,291.4 66.1,291.8 
				66.7,292.2 67.3,292.4 67.3,292.4 67.6,292.4 67.9,292.4 68.3,292.5 			"/>
			<polygon id="LED3" class="st3" points="69.1,265.5 69.6,265.5 70,265.5 70.4,265.5 70.6,265.4 70.9,265.3 71.5,265.1 72.1,264.7 
				72.6,264.2 73,263.6 73.3,263 73.5,262.5 73.5,256.2 73.5,255.3 73.5,254.3 73.5,253.5 73.5,252.7 73.5,252.1 73.5,251.5 
				73.5,251 73.5,250.6 73.5,250.3 73.4,250 73.4,249.8 73.4,249.6 73.4,249.5 73.4,249.4 73.3,249.2 73.3,249.1 73.3,249 
				73.2,248.9 73.1,248.8 73.1,248.6 73,248.5 72.6,247.9 72.2,247.4 71.6,247.1 71,246.8 70.3,246.6 70.3,246.6 70,246.5 
				69.6,246.5 69.2,246.5 68.7,246.5 68.3,246.5 67.9,246.6 67.5,246.6 67.3,246.6 67,246.7 66.4,247 65.8,247.4 65.3,247.9 
				64.9,248.5 64.6,249.1 64.5,249.5 64.4,255.8 64.4,256.1 64.4,257.1 64.4,258 64.4,258.8 64.4,259.4 64.4,260 64.4,260.5 
				64.4,261 64.4,261.3 64.4,261.6 64.5,261.9 64.5,262.1 64.5,262.2 64.5,262.4 64.5,262.5 64.5,262.6 64.6,262.7 64.8,263.3 
				65.1,263.9 65.6,264.4 66.1,264.8 66.7,265.2 67.3,265.4 67.5,265.5 67.8,265.5 68.2,265.5 68.7,265.5 			"/>
			<polygon id="LED2" class="st3" points="69,238.6 69.4,238.6 69.7,238.6 70,238.6 70.2,238.6 70.4,238.5 70.5,238.5 70.7,238.5 
				70.8,238.4 70.9,238.4 71.2,238.3 71.4,238.1 71.7,238 71.8,237.9 72.2,237.6 72.5,237.3 72.8,236.9 73.1,236.5 73.1,236.4 
				73.2,236.2 73.2,236.1 73.3,236 73.3,235.9 73.4,235.7 73.4,235.6 73.4,235.4 73.4,235.1 73.5,234.9 73.5,234.5 73.5,234.1 
				73.5,233.7 73.5,233.1 73.5,232.5 73.5,231.7 73.5,230.9 73.5,230 73.5,228.9 73.5,226.3 73.5,222.6 73.3,222.1 73.2,221.9 
				72.9,221.3 72.4,220.8 71.9,220.3 71.3,220 70.7,219.7 70.6,219.7 70.4,219.7 70,219.6 69.6,219.6 69.2,219.6 68.7,219.6 
				68.3,219.6 67.9,219.6 67.5,219.7 67.3,219.7 67.1,219.7 66.6,220 66,220.3 65.6,220.7 65.2,221.1 64.8,221.6 64.8,221.7 
				64.7,221.9 64.7,222 64.6,222.1 64.6,222.2 64.6,222.4 64.5,222.5 64.5,222.7 64.5,223 64.5,223.3 64.4,223.6 64.4,224 
				64.4,224.5 64.4,225.1 64.4,225.7 64.4,226.4 64.4,227.3 64.4,228.2 64.4,229.3 64.5,235.6 64.6,236 64.7,236.2 64.9,236.6 
				65.2,237 65.5,237.4 65.6,237.5 66.1,237.9 66.5,238.2 67.1,238.4 67.2,238.5 67.4,238.5 67.5,238.5 67.7,238.6 67.9,238.6 
				68.2,238.6 68.5,238.6 			"/>
			<polygon id="LED1" class="st3" points="69,211.6 69.5,211.6 70.1,211.6 70.6,211.5 71.1,211.4 71.5,211.2 71.9,210.9 72.3,210.5 
				72.5,210.3 72.7,210.1 72.9,209.8 73.1,209.6 73.1,209.5 73.2,209.3 73.2,209.2 73.3,209.1 73.3,209 73.4,208.8 73.4,208.7 
				73.4,208.5 73.4,208.3 73.5,208 73.5,207.6 73.5,207.3 73.5,206.8 73.5,206.3 73.5,205.6 73.5,204.9 73.5,204.1 73.5,203.2 
				73.5,202.1 73.5,201.6 73.5,201.1 73.5,200.6 73.5,199.8 73.5,199.1 73.5,198.4 73.5,197.9 73.5,197.4 73.5,197 73.5,196.7 
				73.5,196.4 73.5,196.2 73.4,196 73.4,195.9 73.4,195.8 73.4,195.7 73.4,195.6 73.4,195.5 73.3,195.2 73.1,194.7 72.8,194.2 
				72.4,193.8 71.8,193.3 71.3,193 70.6,192.7 70.6,192.7 70.3,192.7 70,192.7 69.6,192.6 69.1,192.6 68.7,192.6 68.3,192.6 
				67.9,192.7 67.6,192.7 67.3,192.7 67.3,192.7 66.7,193 66.1,193.3 65.6,193.8 65.3,194 65,194.5 64.7,194.9 64.5,195.5 
				64.5,195.5 64.5,195.6 64.5,195.7 64.5,195.8 64.5,195.9 64.5,196.1 64.5,196.3 64.4,196.5 64.4,196.8 64.4,197.2 64.4,197.6 
				64.4,198.1 64.4,198.7 64.4,199.4 64.4,200.2 64.4,201.1 64.4,202.1 64.4,202.7 64.4,203.7 64.4,204.6 64.4,205.3 64.4,206 
				64.4,206.6 64.4,207.1 64.4,207.5 64.5,207.8 64.5,208.1 64.5,208.4 64.5,208.6 64.5,208.7 64.6,208.9 64.6,209 64.7,209.1 
				64.7,209.3 64.8,209.4 64.8,209.5 64.9,209.7 65.1,209.9 65.3,210.2 65.6,210.5 65.9,210.8 66.3,211.1 66.7,211.3 67.2,211.5 
				67.7,211.6 68.3,211.6 			"/>
			<polygon id="LED0" class="st3" points="68.9,184.7 69.4,184.7 69.8,184.7 70.2,184.6 70.5,184.6 70.5,184.6 71.1,184.4 
				71.7,184.1 72.2,183.7 72.7,183.2 73,182.6 73.1,182.6 73.2,182.4 73.2,182.3 73.3,182.2 73.3,182.1 73.3,181.9 73.4,181.8 
				73.4,181.6 73.4,181.3 73.4,181.1 73.5,180.7 73.5,180.3 73.5,179.9 73.5,179.3 73.5,178.7 73.5,178 73.5,177.2 73.5,176.2 
				73.5,175.2 73.5,174.6 73.5,173.7 73.5,172.8 73.5,172 73.5,171.4 73.5,170.8 73.5,170.3 73.5,169.9 73.5,169.6 73.5,169.3 
				73.4,169.1 73.4,168.9 73.4,168.8 73.4,168.7 73.4,168.6 73.3,168.4 73.1,167.8 72.7,167.2 72.3,166.7 71.8,166.3 71.2,166 
				70.6,165.8 70.4,165.7 70.1,165.7 69.7,165.7 69.3,165.7 68.8,165.7 68.4,165.7 67.9,165.7 67.6,165.7 67.4,165.8 67.1,165.8 
				66.5,166.1 66,166.4 65.5,166.9 65,167.4 64.7,168 64.5,168.6 64.5,168.6 64.5,168.8 64.5,169.1 64.5,169.5 64.5,170 64.4,170.5 
				64.4,171.1 64.4,171.8 64.4,172.5 64.4,173.3 64.4,174.1 64.4,174.9 64.4,175.7 64.4,176.5 64.4,177.3 64.4,178 64.4,178.7 
				64.4,179.4 64.4,180 64.5,180.5 64.5,181 64.5,181.3 64.5,181.6 64.5,181.7 64.6,182.1 64.9,182.7 65.3,183.2 65.7,183.7 
				66.3,184.1 66.8,184.4 67.5,184.6 67.6,184.6 68,184.7 68.4,184.7 			"/>
		</g>
	</g>
</g>
<g id="INTRO" class="st36">
	<g id="usb" class="st37">
		<line id="LINE_00000106844062921865571360000001961601507576931485_" class="st38" x1="270.9" y1="82" x2="270.9" y2="62.8"/>
		<text transform="matrix(1 0 0 1 253.1461 58.4427)" class="st39 st40">USB C</text>
	</g>
	<g id="midi" class="st37">
		<line id="LINE" class="st38" x1="212.9" y1="82" x2="212.9" y2="62.8"/>
		<text transform="matrix(1 0 0 1 187.491 58.4427)" class="st39 st40">MIDI TRS</text>
	</g>
</g>
<g id="INTERFACE">
	<g id="keyboard">
		<line id="LINE_00000176036490734695770040000008936582708800275333_" class="st38" x1="270.9" y1="99.3" x2="270.9" y2="62.8"/>
		<text transform="matrix(1 0 0 1 238.8776 42.9994)"><tspan x="0" y="0" class="st39 st40">KEYBOARD </tspan><tspan x="14.4" y="14.4" class="st39 st40">MODE</tspan></text>
	</g>
	<g id="touch">
		<line id="LINE_00000088129343440272786570000009906376530426359169_" class="st38" x1="43.9" y1="99.3" x2="43.9" y2="62.8"/>
		<text transform="matrix(1 0 0 1 22.6366 42.9994)"><tspan x="0" y="0" class="st39 st40">TOUCH </tspan><tspan x="3.7" y="14.4" class="st39 st40">MODE</tspan></text>
	</g>
</g>
</svg>
